# Blender v2.79 (sub 0) OBJ File: 'lpms-cu2.blend'
# www.blender.org
mtllib lpms-cu2.mtl
o Cube
v 1.000000 -0.618238 -0.822232
v 1.000000 -0.618238 1.177767
v -1.000000 -0.618238 1.177768
v -0.999999 -0.618238 -0.822233
v 1.000000 0.284316 -0.822232
v 1.000000 0.284316 1.177768
v -1.000000 0.284316 1.177768
v -1.000000 0.284316 -0.822232
v 0.642036 0.371520 -0.464268
v 0.642036 0.371520 0.819804
v -0.642036 0.371520 0.819804
v -0.642036 0.371520 -0.464268
vt 0.745988 0.767622
vt 0.746155 0.920750
vt 0.256386 0.920868
vt 0.256219 0.767740
vt 0.255623 0.327965
vt 0.745392 0.327847
vt 0.656221 0.391074
vt 0.345577 0.390681
vt 0.767821 0.672102
vt 0.745912 0.672267
vt 0.767301 0.327682
vt 0.745317 0.172413
vt 0.255547 0.172531
vt 0.165115 0.328130
vt 0.256143 0.672385
vt 0.165635 0.672550
vt 0.655958 0.609551
vt 0.345314 0.609158
vn 0.0000 -1.0000 -0.0000
vn -0.0000 0.9716 0.2367
vn 1.0000 -0.0000 0.0000
vn -0.0000 -0.0000 1.0000
vn -1.0000 -0.0000 -0.0000
vn 0.0000 0.0000 -1.0000
vn -0.0000 1.0000 0.0000
vn 0.2367 0.9716 0.0000
vn -0.2367 0.9716 0.0000
vn 0.0000 0.9716 -0.2367
usemtl Material
s off
f 1/1/1 2/2/1 3/3/1 4/4/1
f 7/5/2 6/6/2 10/7/2 11/8/2
f 1/9/3 5/10/3 6/6/3 2/11/3
f 2/12/4 6/6/4 7/5/4 3/13/4
f 3/14/5 7/5/5 8/15/5 4/16/5
f 5/10/6 1/1/6 4/4/6 8/15/6
f 9/17/7 12/18/7 11/8/7 10/7/7
f 6/6/8 5/10/8 9/17/8 10/7/8
f 8/15/9 7/5/9 11/8/9 12/18/9
f 5/10/10 8/15/10 12/18/10 9/17/10
